<mxfile host="app.diagrams.net" modified="2023-11-14T16:13:56.204Z" agent="Mozilla/5.0 (Windows NT 10.0; Win64; x64) AppleWebKit/537.36 (KHTML, like Gecko) Chrome/119.0.0.0 Safari/537.36" etag="ptC0lokaq8RCwiVC2TpM" version="22.1.1" type="device">
  <diagram id="C5RBs43oDa-KdzZeNtuy" name="Page-1">
    <mxGraphModel dx="1813" dy="820" grid="1" gridSize="10" guides="1" tooltips="1" connect="1" arrows="1" fold="1" page="1" pageScale="1" pageWidth="827" pageHeight="1169" math="0" shadow="0">
      <root>
        <mxCell id="WIyWlLk6GJQsqaUBKTNV-0" />
        <mxCell id="WIyWlLk6GJQsqaUBKTNV-1" parent="WIyWlLk6GJQsqaUBKTNV-0" />
        <mxCell id="zkfFHV4jXpPFQw0GAbJ--0" value="Personaje" style="swimlane;fontStyle=0;align=center;verticalAlign=top;childLayout=stackLayout;horizontal=1;startSize=26;horizontalStack=0;resizeParent=1;resizeLast=0;collapsible=1;marginBottom=0;rounded=0;shadow=0;strokeWidth=1;" parent="WIyWlLk6GJQsqaUBKTNV-1" vertex="1">
          <mxGeometry x="14" y="20" width="450" height="204" as="geometry">
            <mxRectangle x="230" y="140" width="160" height="26" as="alternateBounds" />
          </mxGeometry>
        </mxCell>
        <mxCell id="zkfFHV4jXpPFQw0GAbJ--1" value="-nombreReal: String" style="text;align=left;verticalAlign=top;spacingLeft=4;spacingRight=4;overflow=hidden;rotatable=0;points=[[0,0.5],[1,0.5]];portConstraint=eastwest;" parent="zkfFHV4jXpPFQw0GAbJ--0" vertex="1">
          <mxGeometry y="26" width="450" height="22" as="geometry" />
        </mxCell>
        <mxCell id="zkfFHV4jXpPFQw0GAbJ--2" value="-nombreFicticio: String" style="text;align=left;verticalAlign=top;spacingLeft=4;spacingRight=4;overflow=hidden;rotatable=0;points=[[0,0.5],[1,0.5]];portConstraint=eastwest;rounded=0;shadow=0;html=0;" parent="zkfFHV4jXpPFQw0GAbJ--0" vertex="1">
          <mxGeometry y="48" width="450" height="26" as="geometry" />
        </mxCell>
        <mxCell id="zkfFHV4jXpPFQw0GAbJ--3" value="-tipo: String" style="text;align=left;verticalAlign=top;spacingLeft=4;spacingRight=4;overflow=hidden;rotatable=0;points=[[0,0.5],[1,0.5]];portConstraint=eastwest;rounded=0;shadow=0;html=0;" parent="zkfFHV4jXpPFQw0GAbJ--0" vertex="1">
          <mxGeometry y="74" width="450" height="26" as="geometry" />
        </mxCell>
        <mxCell id="zkfFHV4jXpPFQw0GAbJ--4" value="" style="line;html=1;strokeWidth=1;align=left;verticalAlign=middle;spacingTop=-1;spacingLeft=3;spacingRight=3;rotatable=0;labelPosition=right;points=[];portConstraint=eastwest;" parent="zkfFHV4jXpPFQw0GAbJ--0" vertex="1">
          <mxGeometry y="100" width="450" height="8" as="geometry" />
        </mxCell>
        <mxCell id="zkfFHV4jXpPFQw0GAbJ--5" value="+crearPersonaje(): Personaje" style="text;align=left;verticalAlign=top;spacingLeft=4;spacingRight=4;overflow=hidden;rotatable=0;points=[[0,0.5],[1,0.5]];portConstraint=eastwest;" parent="zkfFHV4jXpPFQw0GAbJ--0" vertex="1">
          <mxGeometry y="108" width="450" height="32" as="geometry" />
        </mxCell>
        <mxCell id="JdReJBV12eCbyglgQ1o7-0" value="+personajesQueLoVencenA(ArrayList&lt;Personaje&gt;,String):ArrayList&lt;Personaje&gt;" style="text;align=left;verticalAlign=top;spacingLeft=4;spacingRight=4;overflow=hidden;rotatable=0;points=[[0,0.5],[1,0.5]];portConstraint=eastwest;" vertex="1" parent="zkfFHV4jXpPFQw0GAbJ--0">
          <mxGeometry y="140" width="450" height="32" as="geometry" />
        </mxCell>
        <mxCell id="5yEcHpC8JJfRAUInRqEg-3" value="+buscarMiembroEnPersonajes(ArrayList&lt;Personajes&gt;,String): Personaje" style="text;align=left;verticalAlign=top;spacingLeft=4;spacingRight=4;overflow=hidden;rotatable=0;points=[[0,0.5],[1,0.5]];portConstraint=eastwest;" parent="zkfFHV4jXpPFQw0GAbJ--0" vertex="1">
          <mxGeometry y="172" width="450" height="32" as="geometry" />
        </mxCell>
        <mxCell id="zkfFHV4jXpPFQw0GAbJ--6" value="Caracteristicas" style="swimlane;fontStyle=0;align=center;verticalAlign=top;childLayout=stackLayout;horizontal=1;startSize=26;horizontalStack=0;resizeParent=1;resizeLast=0;collapsible=1;marginBottom=0;rounded=0;shadow=0;strokeWidth=1;" parent="WIyWlLk6GJQsqaUBKTNV-1" vertex="1">
          <mxGeometry x="570" y="440" width="156" height="140" as="geometry">
            <mxRectangle x="130" y="380" width="160" height="26" as="alternateBounds" />
          </mxGeometry>
        </mxCell>
        <mxCell id="zkfFHV4jXpPFQw0GAbJ--7" value="-velocidad: Double" style="text;align=left;verticalAlign=top;spacingLeft=4;spacingRight=4;overflow=hidden;rotatable=0;points=[[0,0.5],[1,0.5]];portConstraint=eastwest;" parent="zkfFHV4jXpPFQw0GAbJ--6" vertex="1">
          <mxGeometry y="26" width="156" height="26" as="geometry" />
        </mxCell>
        <mxCell id="zkfFHV4jXpPFQw0GAbJ--8" value="-fuerza: Double" style="text;align=left;verticalAlign=top;spacingLeft=4;spacingRight=4;overflow=hidden;rotatable=0;points=[[0,0.5],[1,0.5]];portConstraint=eastwest;rounded=0;shadow=0;html=0;" parent="zkfFHV4jXpPFQw0GAbJ--6" vertex="1">
          <mxGeometry y="52" width="156" height="26" as="geometry" />
        </mxCell>
        <mxCell id="5yEcHpC8JJfRAUInRqEg-6" value="-resistencia: Double" style="text;align=left;verticalAlign=top;spacingLeft=4;spacingRight=4;overflow=hidden;rotatable=0;points=[[0,0.5],[1,0.5]];portConstraint=eastwest;rounded=0;shadow=0;html=0;" parent="zkfFHV4jXpPFQw0GAbJ--6" vertex="1">
          <mxGeometry y="78" width="156" height="26" as="geometry" />
        </mxCell>
        <mxCell id="5yEcHpC8JJfRAUInRqEg-5" value="-destreza: Double" style="text;align=left;verticalAlign=top;spacingLeft=4;spacingRight=4;overflow=hidden;rotatable=0;points=[[0,0.5],[1,0.5]];portConstraint=eastwest;rounded=0;shadow=0;html=0;" parent="zkfFHV4jXpPFQw0GAbJ--6" vertex="1">
          <mxGeometry y="104" width="156" height="26" as="geometry" />
        </mxCell>
        <mxCell id="5yEcHpC8JJfRAUInRqEg-7" value="" style="endArrow=diamondThin;endFill=0;endSize=24;html=1;rounded=0;exitX=0;exitY=0.5;exitDx=0;exitDy=0;entryX=0.66;entryY=0.988;entryDx=0;entryDy=0;entryPerimeter=0;" parent="WIyWlLk6GJQsqaUBKTNV-1" source="zkfFHV4jXpPFQw0GAbJ--8" target="5yEcHpC8JJfRAUInRqEg-3" edge="1">
          <mxGeometry width="160" relative="1" as="geometry">
            <mxPoint x="60" y="250" as="sourcePoint" />
            <mxPoint x="220" y="250" as="targetPoint" />
            <Array as="points">
              <mxPoint x="311" y="505" />
            </Array>
          </mxGeometry>
        </mxCell>
        <UserObject label="1" placeholders="1" name="Variable" id="5yEcHpC8JJfRAUInRqEg-9">
          <mxCell style="text;html=1;strokeColor=none;fillColor=none;align=center;verticalAlign=middle;whiteSpace=wrap;overflow=hidden;" parent="WIyWlLk6GJQsqaUBKTNV-1" vertex="1">
            <mxGeometry x="250" y="220" width="80" height="20" as="geometry" />
          </mxCell>
        </UserObject>
        <UserObject label="4" placeholders="1" name="Variable" id="5yEcHpC8JJfRAUInRqEg-10">
          <mxCell style="text;html=1;strokeColor=none;fillColor=none;align=center;verticalAlign=middle;whiteSpace=wrap;overflow=hidden;" parent="WIyWlLk6GJQsqaUBKTNV-1" vertex="1">
            <mxGeometry x="480" y="510" width="80" height="20" as="geometry" />
          </mxCell>
        </UserObject>
        <mxCell id="5yEcHpC8JJfRAUInRqEg-11" value="Liga" style="swimlane;fontStyle=0;align=center;verticalAlign=top;childLayout=stackLayout;horizontal=1;startSize=26;horizontalStack=0;resizeParent=1;resizeLast=0;collapsible=1;marginBottom=0;rounded=0;shadow=0;strokeWidth=1;" parent="WIyWlLk6GJQsqaUBKTNV-1" vertex="1">
          <mxGeometry x="1160" y="10" width="400" height="268" as="geometry">
            <mxRectangle x="230" y="140" width="160" height="26" as="alternateBounds" />
          </mxGeometry>
        </mxCell>
        <mxCell id="5yEcHpC8JJfRAUInRqEg-12" value="-nombre: String" style="text;align=left;verticalAlign=top;spacingLeft=4;spacingRight=4;overflow=hidden;rotatable=0;points=[[0,0.5],[1,0.5]];portConstraint=eastwest;" parent="5yEcHpC8JJfRAUInRqEg-11" vertex="1">
          <mxGeometry y="26" width="400" height="22" as="geometry" />
        </mxCell>
        <mxCell id="5yEcHpC8JJfRAUInRqEg-14" value="-tipo: String" style="text;align=left;verticalAlign=top;spacingLeft=4;spacingRight=4;overflow=hidden;rotatable=0;points=[[0,0.5],[1,0.5]];portConstraint=eastwest;rounded=0;shadow=0;html=0;" parent="5yEcHpC8JJfRAUInRqEg-11" vertex="1">
          <mxGeometry y="48" width="400" height="26" as="geometry" />
        </mxCell>
        <mxCell id="5yEcHpC8JJfRAUInRqEg-13" value="-miembros: List" style="text;align=left;verticalAlign=top;spacingLeft=4;spacingRight=4;overflow=hidden;rotatable=0;points=[[0,0.5],[1,0.5]];portConstraint=eastwest;rounded=0;shadow=0;html=0;" parent="5yEcHpC8JJfRAUInRqEg-11" vertex="1">
          <mxGeometry y="74" width="400" height="26" as="geometry" />
        </mxCell>
        <mxCell id="5yEcHpC8JJfRAUInRqEg-15" value="" style="line;html=1;strokeWidth=1;align=left;verticalAlign=middle;spacingTop=-1;spacingLeft=3;spacingRight=3;rotatable=0;labelPosition=right;points=[];portConstraint=eastwest;" parent="5yEcHpC8JJfRAUInRqEg-11" vertex="1">
          <mxGeometry y="100" width="400" height="8" as="geometry" />
        </mxCell>
        <mxCell id="5yEcHpC8JJfRAUInRqEg-19" value="+crearLiga (ArrayList&lt;Liga&gt;,ArrayList&lt;Personaje&gt;): Liga" style="text;align=left;verticalAlign=top;spacingLeft=4;spacingRight=4;overflow=hidden;rotatable=0;points=[[0,0.5],[1,0.5]];portConstraint=eastwest;" parent="5yEcHpC8JJfRAUInRqEg-11" vertex="1">
          <mxGeometry y="108" width="400" height="32" as="geometry" />
        </mxCell>
        <mxCell id="5yEcHpC8JJfRAUInRqEg-16" value="+agregarMiembro(String,ArrayList&lt;Liga&gt;,ArrayList&lt;Personajes&gt;): void" style="text;align=left;verticalAlign=top;spacingLeft=4;spacingRight=4;overflow=hidden;rotatable=0;points=[[0,0.5],[1,0.5]];portConstraint=eastwest;" parent="5yEcHpC8JJfRAUInRqEg-11" vertex="1">
          <mxGeometry y="140" width="400" height="32" as="geometry" />
        </mxCell>
        <mxCell id="5yEcHpC8JJfRAUInRqEg-17" value="+buscarMiembroEnLigas(ArrayList&lt;Liga&gt;,String): Liga" style="text;align=left;verticalAlign=top;spacingLeft=4;spacingRight=4;overflow=hidden;rotatable=0;points=[[0,0.5],[1,0.5]];portConstraint=eastwest;" parent="5yEcHpC8JJfRAUInRqEg-11" vertex="1">
          <mxGeometry y="172" width="400" height="32" as="geometry" />
        </mxCell>
        <mxCell id="5yEcHpC8JJfRAUInRqEg-20" value="+calcularPromedioCaracteristica():Caracteristicas" style="text;align=left;verticalAlign=top;spacingLeft=4;spacingRight=4;overflow=hidden;rotatable=0;points=[[0,0.5],[1,0.5]];portConstraint=eastwest;" parent="5yEcHpC8JJfRAUInRqEg-11" vertex="1">
          <mxGeometry y="204" width="400" height="32" as="geometry" />
        </mxCell>
        <mxCell id="5yEcHpC8JJfRAUInRqEg-21" value="+acumularCaracteristicas(Caracteristicas):void" style="text;align=left;verticalAlign=top;spacingLeft=4;spacingRight=4;overflow=hidden;rotatable=0;points=[[0,0.5],[1,0.5]];portConstraint=eastwest;" parent="5yEcHpC8JJfRAUInRqEg-11" vertex="1">
          <mxGeometry y="236" width="400" height="32" as="geometry" />
        </mxCell>
        <mxCell id="5yEcHpC8JJfRAUInRqEg-28" value="" style="endArrow=diamondThin;endFill=0;endSize=24;html=1;rounded=0;exitX=1.004;exitY=0.25;exitDx=0;exitDy=0;exitPerimeter=0;entryX=1.008;entryY=1.031;entryDx=0;entryDy=0;entryPerimeter=0;" parent="5yEcHpC8JJfRAUInRqEg-11" source="5yEcHpC8JJfRAUInRqEg-20" target="5yEcHpC8JJfRAUInRqEg-13" edge="1">
          <mxGeometry width="160" relative="1" as="geometry">
            <mxPoint x="430" y="210" as="sourcePoint" />
            <mxPoint x="630" y="210" as="targetPoint" />
            <Array as="points">
              <mxPoint x="520" y="210" />
              <mxPoint x="520" y="160" />
              <mxPoint x="520" y="101" />
            </Array>
          </mxGeometry>
        </mxCell>
        <mxCell id="5yEcHpC8JJfRAUInRqEg-22" value="" style="endArrow=diamondThin;endFill=0;endSize=24;html=1;rounded=0;exitX=1;exitY=0.5;exitDx=0;exitDy=0;entryX=0.496;entryY=1.125;entryDx=0;entryDy=0;entryPerimeter=0;" parent="WIyWlLk6GJQsqaUBKTNV-1" source="zkfFHV4jXpPFQw0GAbJ--8" target="5yEcHpC8JJfRAUInRqEg-21" edge="1">
          <mxGeometry width="160" relative="1" as="geometry">
            <mxPoint x="726" y="350.056" as="sourcePoint" />
            <mxPoint x="919.22" y="345.95" as="targetPoint" />
            <Array as="points">
              <mxPoint x="1358" y="500" />
            </Array>
          </mxGeometry>
        </mxCell>
        <UserObject label="4" placeholders="1" name="Variable" id="5yEcHpC8JJfRAUInRqEg-23">
          <mxCell style="text;html=1;strokeColor=none;fillColor=none;align=center;verticalAlign=middle;whiteSpace=wrap;overflow=hidden;" parent="WIyWlLk6GJQsqaUBKTNV-1" vertex="1">
            <mxGeometry x="720" y="510" width="80" height="20" as="geometry" />
          </mxCell>
        </UserObject>
        <UserObject label="1" placeholders="1" name="Variable" id="5yEcHpC8JJfRAUInRqEg-24">
          <mxCell style="text;html=1;strokeColor=none;fillColor=none;align=center;verticalAlign=middle;whiteSpace=wrap;overflow=hidden;" parent="WIyWlLk6GJQsqaUBKTNV-1" vertex="1">
            <mxGeometry x="1330" y="320" width="80" height="20" as="geometry" />
          </mxCell>
        </UserObject>
        <mxCell id="5yEcHpC8JJfRAUInRqEg-25" value="" style="endArrow=diamondThin;endFill=0;endSize=24;html=1;rounded=0;exitX=1;exitY=0.5;exitDx=0;exitDy=0;entryX=-0.004;entryY=0.831;entryDx=0;entryDy=0;entryPerimeter=0;" parent="WIyWlLk6GJQsqaUBKTNV-1" source="zkfFHV4jXpPFQw0GAbJ--2" target="5yEcHpC8JJfRAUInRqEg-14" edge="1">
          <mxGeometry width="160" relative="1" as="geometry">
            <mxPoint x="460" y="80" as="sourcePoint" />
            <mxPoint x="620" y="80" as="targetPoint" />
          </mxGeometry>
        </mxCell>
        <UserObject label="1" placeholders="1" name="Variable" id="5yEcHpC8JJfRAUInRqEg-26">
          <mxCell style="text;html=1;strokeColor=none;fillColor=none;align=center;verticalAlign=middle;whiteSpace=wrap;overflow=hidden;" parent="WIyWlLk6GJQsqaUBKTNV-1" vertex="1">
            <mxGeometry x="1090" y="50" width="80" height="20" as="geometry" />
          </mxCell>
        </UserObject>
        <UserObject label="1..*" placeholders="1" name="Variable" id="5yEcHpC8JJfRAUInRqEg-27">
          <mxCell style="text;html=1;strokeColor=none;fillColor=none;align=center;verticalAlign=middle;whiteSpace=wrap;overflow=hidden;" parent="WIyWlLk6GJQsqaUBKTNV-1" vertex="1">
            <mxGeometry x="400" y="50" width="80" height="20" as="geometry" />
          </mxCell>
        </UserObject>
        <UserObject label="1" placeholders="1" name="Variable" id="5yEcHpC8JJfRAUInRqEg-29">
          <mxCell style="text;html=1;strokeColor=none;fillColor=none;align=center;verticalAlign=middle;whiteSpace=wrap;overflow=hidden;" parent="WIyWlLk6GJQsqaUBKTNV-1" vertex="1">
            <mxGeometry x="1560" y="84" width="80" height="20" as="geometry" />
          </mxCell>
        </UserObject>
        <UserObject label="1..*" placeholders="1" name="Variable" id="5yEcHpC8JJfRAUInRqEg-30">
          <mxCell style="text;html=1;strokeColor=none;fillColor=none;align=center;verticalAlign=middle;whiteSpace=wrap;overflow=hidden;" parent="WIyWlLk6GJQsqaUBKTNV-1" vertex="1">
            <mxGeometry x="1550" y="230" width="80" height="20" as="geometry" />
          </mxCell>
        </UserObject>
        <mxCell id="5yEcHpC8JJfRAUInRqEg-31" value="Batalla" style="swimlane;fontStyle=1;align=center;verticalAlign=top;childLayout=stackLayout;horizontal=1;startSize=26;horizontalStack=0;resizeParent=1;resizeParentMax=0;resizeLast=0;collapsible=1;marginBottom=0;whiteSpace=wrap;html=1;" parent="WIyWlLk6GJQsqaUBKTNV-1" vertex="1">
          <mxGeometry x="600" y="104" width="360" height="136" as="geometry" />
        </mxCell>
        <mxCell id="5yEcHpC8JJfRAUInRqEg-35" value="" style="text;strokeColor=none;fillColor=none;align=left;verticalAlign=middle;spacingTop=-1;spacingLeft=4;spacingRight=4;rotatable=0;labelPosition=right;points=[];portConstraint=eastwest;" parent="5yEcHpC8JJfRAUInRqEg-31" vertex="1">
          <mxGeometry y="26" width="360" height="24" as="geometry" />
        </mxCell>
        <mxCell id="5yEcHpC8JJfRAUInRqEg-33" value="" style="line;strokeWidth=1;fillColor=none;align=left;verticalAlign=middle;spacingTop=-1;spacingLeft=3;spacingRight=3;rotatable=0;labelPosition=right;points=[];portConstraint=eastwest;strokeColor=inherit;" parent="5yEcHpC8JJfRAUInRqEg-31" vertex="1">
          <mxGeometry y="50" width="360" height="8" as="geometry" />
        </mxCell>
        <mxCell id="5yEcHpC8JJfRAUInRqEg-34" value="+determinarGanador1v1(Personaje,Personaje,String): Personaje" style="text;strokeColor=none;fillColor=none;align=left;verticalAlign=top;spacingLeft=4;spacingRight=4;overflow=hidden;rotatable=0;points=[[0,0.5],[1,0.5]];portConstraint=eastwest;whiteSpace=wrap;html=1;" parent="5yEcHpC8JJfRAUInRqEg-31" vertex="1">
          <mxGeometry y="58" width="360" height="26" as="geometry" />
        </mxCell>
        <mxCell id="5yEcHpC8JJfRAUInRqEg-36" value="+determinarGanadorNvN(Liga,Liga,String): Liga" style="text;strokeColor=none;fillColor=none;align=left;verticalAlign=top;spacingLeft=4;spacingRight=4;overflow=hidden;rotatable=0;points=[[0,0.5],[1,0.5]];portConstraint=eastwest;whiteSpace=wrap;html=1;" parent="5yEcHpC8JJfRAUInRqEg-31" vertex="1">
          <mxGeometry y="84" width="360" height="26" as="geometry" />
        </mxCell>
        <mxCell id="5yEcHpC8JJfRAUInRqEg-37" value="+determinarGanador1vN(Personaje,Liga,String): Object" style="text;strokeColor=none;fillColor=none;align=left;verticalAlign=top;spacingLeft=4;spacingRight=4;overflow=hidden;rotatable=0;points=[[0,0.5],[1,0.5]];portConstraint=eastwest;whiteSpace=wrap;html=1;" parent="5yEcHpC8JJfRAUInRqEg-31" vertex="1">
          <mxGeometry y="110" width="360" height="26" as="geometry" />
        </mxCell>
        <mxCell id="5yEcHpC8JJfRAUInRqEg-38" value="Use" style="endArrow=open;endSize=12;dashed=1;html=1;rounded=0;entryX=1.011;entryY=0.161;entryDx=0;entryDy=0;entryPerimeter=0;exitX=-0.002;exitY=0.165;exitDx=0;exitDy=0;exitPerimeter=0;" parent="WIyWlLk6GJQsqaUBKTNV-1" source="5yEcHpC8JJfRAUInRqEg-34" target="JdReJBV12eCbyglgQ1o7-0" edge="1">
          <mxGeometry width="160" relative="1" as="geometry">
            <mxPoint x="590" y="160" as="sourcePoint" />
            <mxPoint x="580" y="150" as="targetPoint" />
          </mxGeometry>
        </mxCell>
        <mxCell id="5yEcHpC8JJfRAUInRqEg-39" value="Use" style="endArrow=open;endSize=12;dashed=1;html=1;rounded=0;exitX=1;exitY=0.5;exitDx=0;exitDy=0;entryX=0;entryY=0.5;entryDx=0;entryDy=0;" parent="WIyWlLk6GJQsqaUBKTNV-1" source="5yEcHpC8JJfRAUInRqEg-36" target="5yEcHpC8JJfRAUInRqEg-17" edge="1">
          <mxGeometry width="160" relative="1" as="geometry">
            <mxPoint x="1031" y="301" as="sourcePoint" />
            <mxPoint x="850" y="300" as="targetPoint" />
            <Array as="points">
              <mxPoint x="970" y="198" />
            </Array>
          </mxGeometry>
        </mxCell>
        <mxCell id="5yEcHpC8JJfRAUInRqEg-42" value="Archivos" style="swimlane;fontStyle=1;align=center;verticalAlign=top;childLayout=stackLayout;horizontal=1;startSize=26;horizontalStack=0;resizeParent=1;resizeParentMax=0;resizeLast=0;collapsible=1;marginBottom=0;whiteSpace=wrap;html=1;" parent="WIyWlLk6GJQsqaUBKTNV-1" vertex="1">
          <mxGeometry x="600" y="270" width="370" height="110" as="geometry" />
        </mxCell>
        <mxCell id="5yEcHpC8JJfRAUInRqEg-43" value="" style="text;strokeColor=none;fillColor=none;align=left;verticalAlign=middle;spacingTop=-1;spacingLeft=4;spacingRight=4;rotatable=0;labelPosition=right;points=[];portConstraint=eastwest;" parent="5yEcHpC8JJfRAUInRqEg-42" vertex="1">
          <mxGeometry y="26" width="370" height="24" as="geometry" />
        </mxCell>
        <mxCell id="5yEcHpC8JJfRAUInRqEg-44" value="" style="line;strokeWidth=1;fillColor=none;align=left;verticalAlign=middle;spacingTop=-1;spacingLeft=3;spacingRight=3;rotatable=0;labelPosition=right;points=[];portConstraint=eastwest;strokeColor=inherit;" parent="5yEcHpC8JJfRAUInRqEg-42" vertex="1">
          <mxGeometry y="50" width="370" height="8" as="geometry" />
        </mxCell>
        <mxCell id="5yEcHpC8JJfRAUInRqEg-45" value="+cargarPersonajesDesdeArchivo(String):ArrayList&amp;lt;Personaje&amp;gt;" style="text;strokeColor=none;fillColor=none;align=left;verticalAlign=top;spacingLeft=4;spacingRight=4;overflow=hidden;rotatable=0;points=[[0,0.5],[1,0.5]];portConstraint=eastwest;whiteSpace=wrap;html=1;" parent="5yEcHpC8JJfRAUInRqEg-42" vertex="1">
          <mxGeometry y="58" width="370" height="26" as="geometry" />
        </mxCell>
        <mxCell id="5yEcHpC8JJfRAUInRqEg-48" value="+cargarLigasDesdeArchivo(String,ArrayList&amp;lt;Liga&amp;gt;):ArrayList&amp;lt;Liga&amp;gt;" style="text;strokeColor=none;fillColor=none;align=left;verticalAlign=top;spacingLeft=4;spacingRight=4;overflow=hidden;rotatable=0;points=[[0,0.5],[1,0.5]];portConstraint=eastwest;whiteSpace=wrap;html=1;" parent="5yEcHpC8JJfRAUInRqEg-42" vertex="1">
          <mxGeometry y="84" width="370" height="26" as="geometry" />
        </mxCell>
        <mxCell id="5yEcHpC8JJfRAUInRqEg-49" value="Use" style="endArrow=open;endSize=12;dashed=1;html=1;rounded=0;exitX=-0.002;exitY=1.303;exitDx=0;exitDy=0;exitPerimeter=0;entryX=0.898;entryY=1.027;entryDx=0;entryDy=0;entryPerimeter=0;" parent="WIyWlLk6GJQsqaUBKTNV-1" source="5yEcHpC8JJfRAUInRqEg-43" target="5yEcHpC8JJfRAUInRqEg-3" edge="1">
          <mxGeometry width="160" relative="1" as="geometry">
            <mxPoint x="570" y="325.33000000000004" as="sourcePoint" />
            <mxPoint x="389" y="324.33000000000004" as="targetPoint" />
            <Array as="points">
              <mxPoint x="418" y="327" />
            </Array>
          </mxGeometry>
        </mxCell>
        <mxCell id="5yEcHpC8JJfRAUInRqEg-50" value="Use" style="endArrow=open;endSize=12;dashed=1;html=1;rounded=0;exitX=1;exitY=0.5;exitDx=0;exitDy=0;entryX=0.15;entryY=1.375;entryDx=0;entryDy=0;entryPerimeter=0;" parent="WIyWlLk6GJQsqaUBKTNV-1" source="5yEcHpC8JJfRAUInRqEg-45" target="5yEcHpC8JJfRAUInRqEg-21" edge="1">
          <mxGeometry width="160" relative="1" as="geometry">
            <mxPoint x="1266" y="424" as="sourcePoint" />
            <mxPoint x="1040" y="290" as="targetPoint" />
            <Array as="points">
              <mxPoint x="1220" y="340" />
            </Array>
          </mxGeometry>
        </mxCell>
        <mxCell id="5yEcHpC8JJfRAUInRqEg-53" value="Reportes" style="swimlane;fontStyle=1;align=center;verticalAlign=top;childLayout=stackLayout;horizontal=1;startSize=26;horizontalStack=0;resizeParent=1;resizeParentMax=0;resizeLast=0;collapsible=1;marginBottom=0;whiteSpace=wrap;html=1;" parent="WIyWlLk6GJQsqaUBKTNV-1" vertex="1">
          <mxGeometry x="600" y="640" width="490" height="110" as="geometry" />
        </mxCell>
        <mxCell id="5yEcHpC8JJfRAUInRqEg-54" value="" style="text;strokeColor=none;fillColor=none;align=left;verticalAlign=middle;spacingTop=-1;spacingLeft=4;spacingRight=4;rotatable=0;labelPosition=right;points=[];portConstraint=eastwest;" parent="5yEcHpC8JJfRAUInRqEg-53" vertex="1">
          <mxGeometry y="26" width="490" height="24" as="geometry" />
        </mxCell>
        <mxCell id="5yEcHpC8JJfRAUInRqEg-55" value="" style="line;strokeWidth=1;fillColor=none;align=left;verticalAlign=middle;spacingTop=-1;spacingLeft=3;spacingRight=3;rotatable=0;labelPosition=right;points=[];portConstraint=eastwest;strokeColor=inherit;" parent="5yEcHpC8JJfRAUInRqEg-53" vertex="1">
          <mxGeometry y="50" width="490" height="8" as="geometry" />
        </mxCell>
        <mxCell id="5yEcHpC8JJfRAUInRqEg-56" value="+ordenarPorCaracteristicas():ArrayList&amp;lt;Personajes&amp;gt;" style="text;strokeColor=none;fillColor=none;align=left;verticalAlign=top;spacingLeft=4;spacingRight=4;overflow=hidden;rotatable=0;points=[[0,0.5],[1,0.5]];portConstraint=eastwest;whiteSpace=wrap;html=1;" parent="5yEcHpC8JJfRAUInRqEg-53" vertex="1">
          <mxGeometry y="58" width="490" height="26" as="geometry" />
        </mxCell>
        <mxCell id="5yEcHpC8JJfRAUInRqEg-57" value="+personajesVencedoresPorCaracteristica(String,String): ArrayList&amp;lt;Personajes&amp;gt;" style="text;strokeColor=none;fillColor=none;align=left;verticalAlign=top;spacingLeft=4;spacingRight=4;overflow=hidden;rotatable=0;points=[[0,0.5],[1,0.5]];portConstraint=eastwest;whiteSpace=wrap;html=1;" parent="5yEcHpC8JJfRAUInRqEg-53" vertex="1">
          <mxGeometry y="84" width="490" height="26" as="geometry" />
        </mxCell>
        <mxCell id="5yEcHpC8JJfRAUInRqEg-58" value="Use" style="endArrow=open;endSize=12;dashed=1;html=1;rounded=0;exitX=-0.006;exitY=0.775;exitDx=0;exitDy=0;exitPerimeter=0;entryX=0.338;entryY=1.06;entryDx=0;entryDy=0;entryPerimeter=0;" parent="WIyWlLk6GJQsqaUBKTNV-1" source="5yEcHpC8JJfRAUInRqEg-54" target="5yEcHpC8JJfRAUInRqEg-3" edge="1">
          <mxGeometry width="160" relative="1" as="geometry">
            <mxPoint x="506" y="684" as="sourcePoint" />
            <mxPoint x="280" y="550" as="targetPoint" />
            <Array as="points">
              <mxPoint x="170" y="684" />
            </Array>
          </mxGeometry>
        </mxCell>
        <mxCell id="5yEcHpC8JJfRAUInRqEg-59" value="Use" style="endArrow=open;endSize=12;dashed=1;html=1;rounded=0;exitX=1.009;exitY=0.059;exitDx=0;exitDy=0;entryX=0.709;entryY=1.063;entryDx=0;entryDy=0;entryPerimeter=0;exitPerimeter=0;" parent="WIyWlLk6GJQsqaUBKTNV-1" source="5yEcHpC8JJfRAUInRqEg-56" target="5yEcHpC8JJfRAUInRqEg-21" edge="1">
          <mxGeometry width="160" relative="1" as="geometry">
            <mxPoint x="1310" y="781" as="sourcePoint" />
            <mxPoint x="1443.55" y="290" as="targetPoint" />
            <Array as="points">
              <mxPoint x="1440" y="700" />
              <mxPoint x="1444" y="380" />
            </Array>
          </mxGeometry>
        </mxCell>
        <mxCell id="5yEcHpC8JJfRAUInRqEg-60" value="Menu" style="swimlane;fontStyle=1;align=center;verticalAlign=top;childLayout=stackLayout;horizontal=1;startSize=26;horizontalStack=0;resizeParent=1;resizeParentMax=0;resizeLast=0;collapsible=1;marginBottom=0;whiteSpace=wrap;html=1;" parent="WIyWlLk6GJQsqaUBKTNV-1" vertex="1">
          <mxGeometry x="587" y="790" width="240" height="162" as="geometry" />
        </mxCell>
        <mxCell id="5yEcHpC8JJfRAUInRqEg-61" value="" style="text;strokeColor=none;fillColor=none;align=left;verticalAlign=middle;spacingTop=-1;spacingLeft=4;spacingRight=4;rotatable=0;labelPosition=right;points=[];portConstraint=eastwest;" parent="5yEcHpC8JJfRAUInRqEg-60" vertex="1">
          <mxGeometry y="26" width="240" height="24" as="geometry" />
        </mxCell>
        <mxCell id="5yEcHpC8JJfRAUInRqEg-62" value="" style="line;strokeWidth=1;fillColor=none;align=left;verticalAlign=middle;spacingTop=-1;spacingLeft=3;spacingRight=3;rotatable=0;labelPosition=right;points=[];portConstraint=eastwest;strokeColor=inherit;" parent="5yEcHpC8JJfRAUInRqEg-60" vertex="1">
          <mxGeometry y="50" width="240" height="8" as="geometry" />
        </mxCell>
        <mxCell id="5yEcHpC8JJfRAUInRqEg-63" value="+showMenu():void" style="text;strokeColor=none;fillColor=none;align=left;verticalAlign=top;spacingLeft=4;spacingRight=4;overflow=hidden;rotatable=0;points=[[0,0.5],[1,0.5]];portConstraint=eastwest;whiteSpace=wrap;html=1;" parent="5yEcHpC8JJfRAUInRqEg-60" vertex="1">
          <mxGeometry y="58" width="240" height="26" as="geometry" />
        </mxCell>
        <mxCell id="5yEcHpC8JJfRAUInRqEg-64" value="-imprimirPersonajes(): void" style="text;strokeColor=none;fillColor=none;align=left;verticalAlign=top;spacingLeft=4;spacingRight=4;overflow=hidden;rotatable=0;points=[[0,0.5],[1,0.5]];portConstraint=eastwest;whiteSpace=wrap;html=1;" parent="5yEcHpC8JJfRAUInRqEg-60" vertex="1">
          <mxGeometry y="84" width="240" height="26" as="geometry" />
        </mxCell>
        <mxCell id="5yEcHpC8JJfRAUInRqEg-65" value="-imprimirLigas(): void" style="text;strokeColor=none;fillColor=none;align=left;verticalAlign=top;spacingLeft=4;spacingRight=4;overflow=hidden;rotatable=0;points=[[0,0.5],[1,0.5]];portConstraint=eastwest;whiteSpace=wrap;html=1;" parent="5yEcHpC8JJfRAUInRqEg-60" vertex="1">
          <mxGeometry y="110" width="240" height="26" as="geometry" />
        </mxCell>
        <mxCell id="5yEcHpC8JJfRAUInRqEg-66" value="-hacerAlgoAPartirDeSeleccion(int):void" style="text;strokeColor=none;fillColor=none;align=left;verticalAlign=top;spacingLeft=4;spacingRight=4;overflow=hidden;rotatable=0;points=[[0,0.5],[1,0.5]];portConstraint=eastwest;whiteSpace=wrap;html=1;" parent="5yEcHpC8JJfRAUInRqEg-60" vertex="1">
          <mxGeometry y="136" width="240" height="26" as="geometry" />
        </mxCell>
        <mxCell id="5yEcHpC8JJfRAUInRqEg-67" value="Use" style="endArrow=open;endSize=12;dashed=1;html=1;rounded=0;exitX=0.013;exitY=0.054;exitDx=0;exitDy=0;exitPerimeter=0;entryX=0.197;entryY=0.96;entryDx=0;entryDy=0;entryPerimeter=0;" parent="WIyWlLk6GJQsqaUBKTNV-1" source="5yEcHpC8JJfRAUInRqEg-63" target="5yEcHpC8JJfRAUInRqEg-3" edge="1">
          <mxGeometry width="160" relative="1" as="geometry">
            <mxPoint x="548" y="891" as="sourcePoint" />
            <mxPoint x="100" y="400" as="targetPoint" />
            <Array as="points">
              <mxPoint x="100" y="849" />
            </Array>
          </mxGeometry>
        </mxCell>
        <mxCell id="5yEcHpC8JJfRAUInRqEg-68" value="Use" style="endArrow=open;endSize=12;dashed=1;html=1;rounded=0;exitX=1;exitY=0.5;exitDx=0;exitDy=0;entryX=0.897;entryY=1.14;entryDx=0;entryDy=0;entryPerimeter=0;" parent="WIyWlLk6GJQsqaUBKTNV-1" source="5yEcHpC8JJfRAUInRqEg-65" target="5yEcHpC8JJfRAUInRqEg-21" edge="1">
          <mxGeometry width="160" relative="1" as="geometry">
            <mxPoint x="1170" y="950" as="sourcePoint" />
            <mxPoint x="1520" y="530" as="targetPoint" />
            <Array as="points">
              <mxPoint x="1516" y="913" />
              <mxPoint x="1520" y="630" />
            </Array>
          </mxGeometry>
        </mxCell>
        <mxCell id="JdReJBV12eCbyglgQ1o7-1" value="&lt;div style=&quot;background-color:#ffffff;padding:0px 0px 0px 2px;&quot;&gt;&lt;div style=&quot;font-family: Consolas; font-size: 10pt;&quot;&gt;&lt;p style=&quot;background-color:#e8f2fe;margin:0;&quot;&gt;ComparadorDePersonajePorCaracteristica&lt;/p&gt;&lt;/div&gt;&lt;/div&gt;" style="swimlane;fontStyle=1;align=center;verticalAlign=top;childLayout=stackLayout;horizontal=1;startSize=26;horizontalStack=0;resizeParent=1;resizeParentMax=0;resizeLast=0;collapsible=1;marginBottom=0;whiteSpace=wrap;html=1;" vertex="1" parent="WIyWlLk6GJQsqaUBKTNV-1">
          <mxGeometry x="130" y="940" width="380" height="86" as="geometry" />
        </mxCell>
        <mxCell id="JdReJBV12eCbyglgQ1o7-2" value="-caracteristicas[ ]: String" style="text;strokeColor=none;fillColor=none;align=left;verticalAlign=top;spacingLeft=4;spacingRight=4;overflow=hidden;rotatable=0;points=[[0,0.5],[1,0.5]];portConstraint=eastwest;whiteSpace=wrap;html=1;" vertex="1" parent="JdReJBV12eCbyglgQ1o7-1">
          <mxGeometry y="26" width="380" height="26" as="geometry" />
        </mxCell>
        <mxCell id="JdReJBV12eCbyglgQ1o7-3" value="" style="line;strokeWidth=1;fillColor=none;align=left;verticalAlign=middle;spacingTop=-1;spacingLeft=3;spacingRight=3;rotatable=0;labelPosition=right;points=[];portConstraint=eastwest;strokeColor=inherit;" vertex="1" parent="JdReJBV12eCbyglgQ1o7-1">
          <mxGeometry y="52" width="380" height="8" as="geometry" />
        </mxCell>
        <mxCell id="JdReJBV12eCbyglgQ1o7-4" value="-compararPorCaracteristica(Personaje, Personaje,String): int" style="text;strokeColor=none;fillColor=none;align=left;verticalAlign=top;spacingLeft=4;spacingRight=4;overflow=hidden;rotatable=0;points=[[0,0.5],[1,0.5]];portConstraint=eastwest;whiteSpace=wrap;html=1;" vertex="1" parent="JdReJBV12eCbyglgQ1o7-1">
          <mxGeometry y="60" width="380" height="26" as="geometry" />
        </mxCell>
        <mxCell id="JdReJBV12eCbyglgQ1o7-5" value="Use" style="endArrow=open;endSize=12;dashed=1;html=1;rounded=0;exitX=0;exitY=0.5;exitDx=0;exitDy=0;entryX=0.063;entryY=1.147;entryDx=0;entryDy=0;entryPerimeter=0;" edge="1" parent="WIyWlLk6GJQsqaUBKTNV-1" source="JdReJBV12eCbyglgQ1o7-2" target="5yEcHpC8JJfRAUInRqEg-3">
          <mxGeometry width="160" relative="1" as="geometry">
            <mxPoint x="71.8" y="990.3" as="sourcePoint" />
            <mxPoint x="-9.999999999999844" y="240.00399999999996" as="targetPoint" />
            <Array as="points">
              <mxPoint x="42" y="980" />
            </Array>
          </mxGeometry>
        </mxCell>
      </root>
    </mxGraphModel>
  </diagram>
</mxfile>
